<svg xmlns="http://www.w3.org/2000/svg" viewBox="0 0 1024 1024">
  <defs>
    <radialGradient id="bg" cx="50%" cy="55%" r="70%">
      <stop offset="0%"   stop-color="#1E1050"/>
      <stop offset="60%"  stop-color="#0F0828"/>
      <stop offset="100%" stop-color="#06060C"/>
    </radialGradient>

    <linearGradient id="vfill" x1="0.18" y1="0.05" x2="0.86" y2="0.95">
      <stop offset="0%"   stop-color="#C0392B"/>
      <stop offset="34%"  stop-color="#8E44AD"/>
      <stop offset="72%"  stop-color="#5876C9"/>
      <stop offset="100%" stop-color="#3498DB"/>
    </linearGradient>

    <linearGradient id="vhi" x1="0.5" y1="0" x2="0.5" y2="0.4">
      <stop offset="0%"   stop-color="#FFFFFF" stop-opacity="0.42"/>
      <stop offset="100%" stop-color="#FFFFFF" stop-opacity="0"/>
    </linearGradient>
  </defs>

  <rect width="1024" height="1024" fill="url(#bg)"/>

  <path fill="url(#vfill)"
        d="M 152 190 Q 136 190 144 204 L 506 834 Q 512 844 518 834 L 880 204 Q 888 190 872 190 L 740 190 Q 728 190 724 202 L 516 718 Q 512 728 508 718 L 300 202 Q 296 190 284 190 Z"/>

  <path fill="url(#vhi)" opacity="0.85"
        d="M 152 190 Q 136 190 144 204 L 506 834 Q 512 844 518 834 L 880 204 Q 888 190 872 190 L 740 190 Q 728 190 724 202 L 516 718 Q 512 728 508 718 L 300 202 Q 296 190 284 190 Z"/>
</svg>
